# xmcd CD database file
#
# Track frame offsets:
#	150
#	10227
#	33321
#	68522
#	114566
#	127899
#	136801
#	161007
#	170162
#	194418
#
# Disc length: 2948 seconds
#
# Revision: 0
# Processed by: cddbd v1.5.2PL0 Copyright (c) Steve Scherf et al.
# Submitted via: CDex 1.51
#
DISCID=810b820a
DTITLE=David Binney - Out of Airplanes
DYEAR=2006
DGENRE=Jazz
TTITLE0=Brainstorms Pt 1
TTITLE1=Contributors
TTITLE2=Jan Mayen
TTITLE3=Out of Airplanes
TTITLE4=The Forgotten Gems
TTITLE5=Wild Child
TTITLE6=Home
TTITLE7=Brainstorms Pt 2
TTITLE8=Bring Your Dream
TTITLE9=Instant Distance
EXTD=YEAR: 2006
EXTT0=
EXTT1=
EXTT2=
EXTT3=
EXTT4=
EXTT5=
EXTT6=
EXTT7=
EXTT8=
EXTT9=
PLAYORDER=
